<mxfile host="app.diagrams.net" agent="Mozilla/5.0 (Windows NT 10.0; Win64; x64) AppleWebKit/537.36 (KHTML, like Gecko) Chrome/130.0.0.0 Safari/537.36" version="25.0.3">
  <diagram name="第 1 页" id="OzLc8kP2v3sWBT7PsH5g">
    <mxGraphModel dx="880" dy="434" grid="1" gridSize="10" guides="1" tooltips="1" connect="1" arrows="1" fold="1" page="1" pageScale="1" pageWidth="827" pageHeight="1169" math="0" shadow="0">
      <root>
        <mxCell id="0" />
        <mxCell id="1" parent="0" />
        <mxCell id="6N52XoH50DvQOM1Rtuur-1" value="" style="rounded=0;whiteSpace=wrap;html=1;" vertex="1" parent="1">
          <mxGeometry x="978" y="549.5" width="158" height="319" as="geometry" />
        </mxCell>
        <mxCell id="6N52XoH50DvQOM1Rtuur-2" style="edgeStyle=orthogonalEdgeStyle;rounded=0;orthogonalLoop=1;jettySize=auto;html=1;entryX=0;entryY=0.5;entryDx=0;entryDy=0;" edge="1" parent="1" source="6N52XoH50DvQOM1Rtuur-3" target="6N52XoH50DvQOM1Rtuur-8">
          <mxGeometry relative="1" as="geometry" />
        </mxCell>
        <mxCell id="6N52XoH50DvQOM1Rtuur-3" value="&lt;span style=&quot;box-sizing: inherit; color: rgb(6, 6, 7); font-family: -apple-system, blinkmacsystemfont, &amp;quot;Helvetica Neue&amp;quot;, helvetica, &amp;quot;segoe ui&amp;quot;, arial, roboto, &amp;quot;PingFang SC&amp;quot;, miui, &amp;quot;Hiragino Sans GB&amp;quot;, &amp;quot;Microsoft Yahei&amp;quot;, sans-serif; font-size: 14px; letter-spacing: 0.25px; text-align: left; white-space-collapse: preserve; background-color: rgb(255, 255, 255);&quot;&gt;部署传感器和遥感设备&lt;/span&gt;" style="rounded=0;whiteSpace=wrap;html=1;" vertex="1" parent="1">
          <mxGeometry x="80" y="295" width="110" height="50" as="geometry" />
        </mxCell>
        <mxCell id="6N52XoH50DvQOM1Rtuur-4" style="edgeStyle=orthogonalEdgeStyle;rounded=0;orthogonalLoop=1;jettySize=auto;html=1;exitX=1;exitY=0.5;exitDx=0;exitDy=0;entryX=0;entryY=0.5;entryDx=0;entryDy=0;" edge="1" parent="1" source="6N52XoH50DvQOM1Rtuur-6" target="6N52XoH50DvQOM1Rtuur-14">
          <mxGeometry relative="1" as="geometry" />
        </mxCell>
        <mxCell id="6N52XoH50DvQOM1Rtuur-5" style="edgeStyle=orthogonalEdgeStyle;rounded=0;orthogonalLoop=1;jettySize=auto;html=1;exitX=1;exitY=0.5;exitDx=0;exitDy=0;entryX=0;entryY=0.5;entryDx=0;entryDy=0;" edge="1" parent="1" source="6N52XoH50DvQOM1Rtuur-6" target="6N52XoH50DvQOM1Rtuur-16">
          <mxGeometry relative="1" as="geometry" />
        </mxCell>
        <mxCell id="6N52XoH50DvQOM1Rtuur-6" value="&lt;div style=&quot;&quot;&gt;&lt;font face=&quot;-apple-system, blinkmacsystemfont, Helvetica Neue, helvetica, segoe ui, arial, roboto, PingFang SC, miui, Hiragino Sans GB, Microsoft Yahei, sans-serif&quot; color=&quot;#060607&quot;&gt;&lt;span style=&quot;font-size: 14px; letter-spacing: 0.25px; white-space-collapse: preserve; background-color: rgb(255, 255, 255);&quot;&gt;构建数据处理框架&lt;/span&gt;&lt;/font&gt;&lt;/div&gt;" style="rounded=0;whiteSpace=wrap;html=1;align=center;" vertex="1" parent="1">
          <mxGeometry x="390" y="295" width="100" height="50" as="geometry" />
        </mxCell>
        <mxCell id="6N52XoH50DvQOM1Rtuur-7" style="edgeStyle=orthogonalEdgeStyle;rounded=0;orthogonalLoop=1;jettySize=auto;html=1;exitX=1;exitY=0.5;exitDx=0;exitDy=0;entryX=0;entryY=0.5;entryDx=0;entryDy=0;" edge="1" parent="1" source="6N52XoH50DvQOM1Rtuur-8" target="6N52XoH50DvQOM1Rtuur-6">
          <mxGeometry relative="1" as="geometry" />
        </mxCell>
        <mxCell id="6N52XoH50DvQOM1Rtuur-8" value="" style="rounded=0;whiteSpace=wrap;html=1;" vertex="1" parent="1">
          <mxGeometry x="230" y="210" width="130" height="220" as="geometry" />
        </mxCell>
        <mxCell id="6N52XoH50DvQOM1Rtuur-9" value="&lt;div style=&quot;&quot;&gt;&lt;font face=&quot;-apple-system, blinkmacsystemfont, Helvetica Neue, helvetica, segoe ui, arial, roboto, PingFang SC, miui, Hiragino Sans GB, Microsoft Yahei, sans-serif&quot; color=&quot;#060607&quot;&gt;&lt;span style=&quot;font-size: 14px; letter-spacing: 0.25px; white-space-collapse: preserve; background-color: rgb(255, 255, 255);&quot;&gt;物理参数&lt;/span&gt;&lt;/font&gt;&lt;/div&gt;" style="rounded=0;whiteSpace=wrap;html=1;align=center;" vertex="1" parent="1">
          <mxGeometry x="245" y="250" width="100" height="50" as="geometry" />
        </mxCell>
        <mxCell id="6N52XoH50DvQOM1Rtuur-10" value="&lt;div style=&quot;&quot;&gt;&lt;font face=&quot;-apple-system, blinkmacsystemfont, Helvetica Neue, helvetica, segoe ui, arial, roboto, PingFang SC, miui, Hiragino Sans GB, Microsoft Yahei, sans-serif&quot; color=&quot;#060607&quot;&gt;&lt;span style=&quot;font-size: 14px; letter-spacing: 0.25px; white-space-collapse: preserve; background-color: rgb(255, 255, 255);&quot;&gt;化学参数&lt;/span&gt;&lt;/font&gt;&lt;/div&gt;" style="rounded=0;whiteSpace=wrap;html=1;align=center;" vertex="1" parent="1">
          <mxGeometry x="245" y="310" width="100" height="50" as="geometry" />
        </mxCell>
        <mxCell id="6N52XoH50DvQOM1Rtuur-11" value="&lt;div style=&quot;&quot;&gt;&lt;font face=&quot;-apple-system, blinkmacsystemfont, Helvetica Neue, helvetica, segoe ui, arial, roboto, PingFang SC, miui, Hiragino Sans GB, Microsoft Yahei, sans-serif&quot; color=&quot;#060607&quot;&gt;&lt;span style=&quot;font-size: 14px; letter-spacing: 0.25px; white-space-collapse: preserve; background-color: rgb(255, 255, 255);&quot;&gt;生物参数&lt;/span&gt;&lt;/font&gt;&lt;/div&gt;" style="rounded=0;whiteSpace=wrap;html=1;align=center;" vertex="1" parent="1">
          <mxGeometry x="245" y="370" width="100" height="50" as="geometry" />
        </mxCell>
        <mxCell id="6N52XoH50DvQOM1Rtuur-12" value="&lt;font style=&quot;font-size: 18px;&quot;&gt;数据采集模块&lt;/font&gt;" style="text;html=1;align=center;verticalAlign=middle;whiteSpace=wrap;rounded=0;rotation=0;" vertex="1" parent="1">
          <mxGeometry x="240" y="210" width="110" height="40" as="geometry" />
        </mxCell>
        <mxCell id="6N52XoH50DvQOM1Rtuur-13" style="edgeStyle=orthogonalEdgeStyle;rounded=0;orthogonalLoop=1;jettySize=auto;html=1;exitX=1;exitY=0.5;exitDx=0;exitDy=0;entryX=0;entryY=0.5;entryDx=0;entryDy=0;" edge="1" parent="1" source="6N52XoH50DvQOM1Rtuur-14" target="6N52XoH50DvQOM1Rtuur-17">
          <mxGeometry relative="1" as="geometry" />
        </mxCell>
        <mxCell id="6N52XoH50DvQOM1Rtuur-14" value="&lt;div style=&quot;&quot;&gt;&lt;font face=&quot;-apple-system, blinkmacsystemfont, Helvetica Neue, helvetica, segoe ui, arial, roboto, PingFang SC, miui, Hiragino Sans GB, Microsoft Yahei, sans-serif&quot; color=&quot;#060607&quot;&gt;&lt;span style=&quot;font-size: 14px; letter-spacing: 0.25px; white-space-collapse: preserve; background-color: rgb(255, 255, 255);&quot;&gt;大数据分析&lt;/span&gt;&lt;/font&gt;&lt;/div&gt;" style="rounded=0;whiteSpace=wrap;html=1;align=center;" vertex="1" parent="1">
          <mxGeometry x="530" y="260" width="100" height="50" as="geometry" />
        </mxCell>
        <mxCell id="6N52XoH50DvQOM1Rtuur-15" style="edgeStyle=orthogonalEdgeStyle;rounded=0;orthogonalLoop=1;jettySize=auto;html=1;exitX=1;exitY=0.5;exitDx=0;exitDy=0;entryX=0;entryY=0.5;entryDx=0;entryDy=0;" edge="1" parent="1" source="6N52XoH50DvQOM1Rtuur-16" target="6N52XoH50DvQOM1Rtuur-17">
          <mxGeometry relative="1" as="geometry">
            <mxPoint x="660" y="320" as="targetPoint" />
          </mxGeometry>
        </mxCell>
        <mxCell id="6N52XoH50DvQOM1Rtuur-16" value="&lt;div style=&quot;&quot;&gt;&lt;font face=&quot;-apple-system, blinkmacsystemfont, Helvetica Neue, helvetica, segoe ui, arial, roboto, PingFang SC, miui, Hiragino Sans GB, Microsoft Yahei, sans-serif&quot; color=&quot;#060607&quot;&gt;&lt;span style=&quot;font-size: 14px; letter-spacing: 0.25px; white-space-collapse: preserve; background-color: rgb(255, 255, 255);&quot;&gt;人工智能技术&lt;/span&gt;&lt;/font&gt;&lt;/div&gt;" style="rounded=0;whiteSpace=wrap;html=1;align=center;" vertex="1" parent="1">
          <mxGeometry x="530" y="330" width="100" height="50" as="geometry" />
        </mxCell>
        <mxCell id="6N52XoH50DvQOM1Rtuur-17" value="&lt;div style=&quot;&quot;&gt;&lt;font face=&quot;-apple-system, blinkmacsystemfont, Helvetica Neue, helvetica, segoe ui, arial, roboto, PingFang SC, miui, Hiragino Sans GB, Microsoft Yahei, sans-serif&quot; color=&quot;#060607&quot;&gt;&lt;span style=&quot;font-size: 14px; letter-spacing: 0.25px; white-space-collapse: preserve; background-color: rgb(255, 255, 255);&quot;&gt;采集与处理模型建立&lt;/span&gt;&lt;/font&gt;&lt;/div&gt;" style="rounded=0;whiteSpace=wrap;html=1;align=center;" vertex="1" parent="1">
          <mxGeometry x="670" y="295" width="100" height="50" as="geometry" />
        </mxCell>
        <mxCell id="6N52XoH50DvQOM1Rtuur-18" style="edgeStyle=orthogonalEdgeStyle;rounded=0;orthogonalLoop=1;jettySize=auto;html=1;exitX=1;exitY=0.5;exitDx=0;exitDy=0;entryX=0;entryY=0.5;entryDx=0;entryDy=0;" edge="1" parent="1" source="6N52XoH50DvQOM1Rtuur-41" target="6N52XoH50DvQOM1Rtuur-24">
          <mxGeometry relative="1" as="geometry" />
        </mxCell>
        <mxCell id="6N52XoH50DvQOM1Rtuur-19" value="&lt;div style=&quot;text-align: left;&quot;&gt;&lt;font face=&quot;-apple-system, blinkmacsystemfont, Helvetica Neue, helvetica, segoe ui, arial, roboto, PingFang SC, miui, Hiragino Sans GB, Microsoft Yahei, sans-serif&quot; color=&quot;#060607&quot;&gt;&lt;span style=&quot;font-size: 14px; letter-spacing: 0.25px; white-space-collapse: preserve; background-color: rgb(255, 255, 255);&quot;&gt;静态基础数据层&lt;/span&gt;&lt;/font&gt;&lt;/div&gt;" style="rounded=0;whiteSpace=wrap;html=1;" vertex="1" parent="1">
          <mxGeometry x="339" y="622" width="107" height="50" as="geometry" />
        </mxCell>
        <mxCell id="6N52XoH50DvQOM1Rtuur-20" style="edgeStyle=orthogonalEdgeStyle;rounded=0;orthogonalLoop=1;jettySize=auto;html=1;exitX=1;exitY=0.5;exitDx=0;exitDy=0;entryX=0;entryY=0.5;entryDx=0;entryDy=0;" edge="1" parent="1" source="6N52XoH50DvQOM1Rtuur-22" target="6N52XoH50DvQOM1Rtuur-26">
          <mxGeometry relative="1" as="geometry" />
        </mxCell>
        <mxCell id="6N52XoH50DvQOM1Rtuur-21" style="edgeStyle=orthogonalEdgeStyle;rounded=0;orthogonalLoop=1;jettySize=auto;html=1;exitX=1;exitY=0.5;exitDx=0;exitDy=0;entryX=0;entryY=0.5;entryDx=0;entryDy=0;" edge="1" parent="1" source="6N52XoH50DvQOM1Rtuur-22" target="6N52XoH50DvQOM1Rtuur-38">
          <mxGeometry relative="1" as="geometry" />
        </mxCell>
        <mxCell id="6N52XoH50DvQOM1Rtuur-22" value="&lt;div style=&quot;text-align: left;&quot;&gt;&lt;font face=&quot;-apple-system, blinkmacsystemfont, Helvetica Neue, helvetica, segoe ui, arial, roboto, PingFang SC, miui, Hiragino Sans GB, Microsoft Yahei, sans-serif&quot; color=&quot;#060607&quot;&gt;&lt;span style=&quot;font-size: 14px; letter-spacing: 0.25px; white-space-collapse: preserve; background-color: rgb(255, 255, 255);&quot;&gt;动态实时数据层&lt;/span&gt;&lt;/font&gt;&lt;/div&gt;" style="rounded=0;whiteSpace=wrap;html=1;" vertex="1" parent="1">
          <mxGeometry x="336" y="723" width="110" height="50" as="geometry" />
        </mxCell>
        <mxCell id="6N52XoH50DvQOM1Rtuur-23" style="edgeStyle=orthogonalEdgeStyle;rounded=0;orthogonalLoop=1;jettySize=auto;html=1;exitX=1;exitY=0.5;exitDx=0;exitDy=0;entryX=0;entryY=0.5;entryDx=0;entryDy=0;" edge="1" parent="1" source="6N52XoH50DvQOM1Rtuur-24" target="6N52XoH50DvQOM1Rtuur-33">
          <mxGeometry relative="1" as="geometry">
            <Array as="points">
              <mxPoint x="821" y="647" />
              <mxPoint x="821" y="709" />
            </Array>
          </mxGeometry>
        </mxCell>
        <mxCell id="6N52XoH50DvQOM1Rtuur-24" value="&lt;div style=&quot;&quot;&gt;&lt;font color=&quot;#060607&quot;&gt;&lt;span style=&quot;font-family: -apple-system, blinkmacsystemfont, &amp;quot;Helvetica Neue&amp;quot;, helvetica, &amp;quot;segoe ui&amp;quot;, arial, roboto, &amp;quot;PingFang SC&amp;quot;, miui, &amp;quot;Hiragino Sans GB&amp;quot;, &amp;quot;Microsoft Yahei&amp;quot;, sans-serif; font-size: 14px; letter-spacing: 0.25px; white-space-collapse: preserve; background-color: rgb(255, 255, 255);&quot;&gt;postgreSQL主从集群模式&lt;/span&gt;&lt;/font&gt;&lt;/div&gt;" style="rounded=0;whiteSpace=wrap;html=1;align=center;" vertex="1" parent="1">
          <mxGeometry x="670" y="622" width="110" height="50" as="geometry" />
        </mxCell>
        <mxCell id="6N52XoH50DvQOM1Rtuur-25" style="edgeStyle=orthogonalEdgeStyle;rounded=0;orthogonalLoop=1;jettySize=auto;html=1;exitX=1;exitY=0.5;exitDx=0;exitDy=0;" edge="1" parent="1" source="6N52XoH50DvQOM1Rtuur-26" target="6N52XoH50DvQOM1Rtuur-36">
          <mxGeometry relative="1" as="geometry" />
        </mxCell>
        <mxCell id="6N52XoH50DvQOM1Rtuur-26" value="&lt;div style=&quot;&quot;&gt;&lt;font face=&quot;-apple-system, blinkmacsystemfont, Helvetica Neue, helvetica, segoe ui, arial, roboto, PingFang SC, miui, Hiragino Sans GB, Microsoft Yahei, sans-serif&quot; color=&quot;#060607&quot;&gt;&lt;span style=&quot;font-size: 14px; letter-spacing: 0.25px; white-space-collapse: preserve; background-color: rgb(255, 255, 255);&quot;&gt;LoRa传感器和GPS模块采集数据&lt;/span&gt;&lt;/font&gt;&lt;/div&gt;" style="rounded=0;whiteSpace=wrap;html=1;align=center;" vertex="1" parent="1">
          <mxGeometry x="515" y="700" width="121" height="52" as="geometry" />
        </mxCell>
        <mxCell id="6N52XoH50DvQOM1Rtuur-27" value="&lt;div style=&quot;&quot;&gt;&lt;font face=&quot;-apple-system, blinkmacsystemfont, Helvetica Neue, helvetica, segoe ui, arial, roboto, PingFang SC, miui, Hiragino Sans GB, Microsoft Yahei, sans-serif&quot; color=&quot;#060607&quot;&gt;&lt;span style=&quot;font-size: 14px; letter-spacing: 0.25px; white-space-collapse: preserve; background-color: rgb(255, 255, 255);&quot;&gt;出入库管理模块&lt;/span&gt;&lt;/font&gt;&lt;/div&gt;" style="rounded=0;whiteSpace=wrap;html=1;align=center;" vertex="1" parent="1">
          <mxGeometry x="1014" y="562" width="110" height="50" as="geometry" />
        </mxCell>
        <mxCell id="6N52XoH50DvQOM1Rtuur-28" value="&lt;div style=&quot;&quot;&gt;&lt;font face=&quot;-apple-system, blinkmacsystemfont, Helvetica Neue, helvetica, segoe ui, arial, roboto, PingFang SC, miui, Hiragino Sans GB, Microsoft Yahei, sans-serif&quot; color=&quot;#060607&quot;&gt;&lt;span style=&quot;font-size: 14px; letter-spacing: 0.25px; white-space-collapse: preserve; background-color: rgb(255, 255, 255);&quot;&gt;维护管理模块&lt;/span&gt;&lt;/font&gt;&lt;/div&gt;" style="rounded=0;whiteSpace=wrap;html=1;align=center;" vertex="1" parent="1">
          <mxGeometry x="1016" y="625" width="110" height="50" as="geometry" />
        </mxCell>
        <mxCell id="6N52XoH50DvQOM1Rtuur-29" value="&lt;div style=&quot;&quot;&gt;&lt;font face=&quot;-apple-system, blinkmacsystemfont, Helvetica Neue, helvetica, segoe ui, arial, roboto, PingFang SC, miui, Hiragino Sans GB, Microsoft Yahei, sans-serif&quot; color=&quot;#060607&quot;&gt;&lt;span style=&quot;font-size: 14px; letter-spacing: 0.25px; white-space-collapse: preserve; background-color: rgb(255, 255, 255);&quot;&gt;配件库管理&lt;/span&gt;&lt;/font&gt;&lt;/div&gt;" style="rounded=0;whiteSpace=wrap;html=1;align=center;" vertex="1" parent="1">
          <mxGeometry x="1016" y="802" width="110" height="50" as="geometry" />
        </mxCell>
        <mxCell id="6N52XoH50DvQOM1Rtuur-30" value="&lt;div style=&quot;&quot;&gt;&lt;font face=&quot;-apple-system, blinkmacsystemfont, Helvetica Neue, helvetica, segoe ui, arial, roboto, PingFang SC, miui, Hiragino Sans GB, Microsoft Yahei, sans-serif&quot; color=&quot;#060607&quot;&gt;&lt;span style=&quot;font-size: 14px; letter-spacing: 0.25px; white-space-collapse: preserve; background-color: rgb(255, 255, 255);&quot;&gt;物资规格化管理&lt;/span&gt;&lt;/font&gt;&lt;/div&gt;" style="rounded=0;whiteSpace=wrap;html=1;align=center;" vertex="1" parent="1">
          <mxGeometry x="1016" y="684" width="110" height="50" as="geometry" />
        </mxCell>
        <mxCell id="6N52XoH50DvQOM1Rtuur-31" value="&lt;div style=&quot;&quot;&gt;&lt;font face=&quot;-apple-system, blinkmacsystemfont, Helvetica Neue, helvetica, segoe ui, arial, roboto, PingFang SC, miui, Hiragino Sans GB, Microsoft Yahei, sans-serif&quot; color=&quot;#060607&quot;&gt;&lt;span style=&quot;font-size: 14px; letter-spacing: 0.25px; white-space-collapse: preserve; background-color: rgb(255, 255, 255);&quot;&gt;库存报警和补充建议&lt;/span&gt;&lt;/font&gt;&lt;/div&gt;" style="rounded=0;whiteSpace=wrap;html=1;align=center;" vertex="1" parent="1">
          <mxGeometry x="1016" y="745" width="110" height="50" as="geometry" />
        </mxCell>
        <mxCell id="6N52XoH50DvQOM1Rtuur-32" style="edgeStyle=orthogonalEdgeStyle;rounded=0;orthogonalLoop=1;jettySize=auto;html=1;exitX=1;exitY=0.5;exitDx=0;exitDy=0;entryX=0;entryY=0.5;entryDx=0;entryDy=0;" edge="1" parent="1" source="6N52XoH50DvQOM1Rtuur-33" target="6N52XoH50DvQOM1Rtuur-1">
          <mxGeometry relative="1" as="geometry" />
        </mxCell>
        <mxCell id="6N52XoH50DvQOM1Rtuur-33" value="&lt;div style=&quot;&quot;&gt;&lt;font face=&quot;-apple-system, blinkmacsystemfont, Helvetica Neue, helvetica, segoe ui, arial, roboto, PingFang SC, miui, Hiragino Sans GB, Microsoft Yahei, sans-serif&quot; color=&quot;#060607&quot;&gt;&lt;span style=&quot;font-size: 14px; letter-spacing: 0.25px; white-space-collapse: preserve; background-color: rgb(255, 255, 255);&quot;&gt;API调用&lt;/span&gt;&lt;/font&gt;&lt;/div&gt;" style="rounded=0;whiteSpace=wrap;html=1;align=center;" vertex="1" parent="1">
          <mxGeometry x="841" y="687" width="94" height="44" as="geometry" />
        </mxCell>
        <mxCell id="6N52XoH50DvQOM1Rtuur-34" value="&lt;font style=&quot;font-size: 18px;&quot;&gt;应用模块&lt;/font&gt;" style="text;html=1;align=center;verticalAlign=middle;whiteSpace=wrap;rounded=0;horizontal=0;rotation=90;" vertex="1" parent="1">
          <mxGeometry x="946" y="689" width="102" height="26" as="geometry" />
        </mxCell>
        <mxCell id="6N52XoH50DvQOM1Rtuur-35" style="edgeStyle=orthogonalEdgeStyle;rounded=0;orthogonalLoop=1;jettySize=auto;html=1;exitX=1;exitY=0.5;exitDx=0;exitDy=0;entryX=0;entryY=0.5;entryDx=0;entryDy=0;" edge="1" parent="1" source="6N52XoH50DvQOM1Rtuur-36" target="6N52XoH50DvQOM1Rtuur-33">
          <mxGeometry relative="1" as="geometry" />
        </mxCell>
        <mxCell id="6N52XoH50DvQOM1Rtuur-36" value="&lt;div style=&quot;&quot;&gt;&lt;font face=&quot;-apple-system, blinkmacsystemfont, Helvetica Neue, helvetica, segoe ui, arial, roboto, PingFang SC, miui, Hiragino Sans GB, Microsoft Yahei, sans-serif&quot; color=&quot;#060607&quot;&gt;&lt;span style=&quot;font-size: 14px; letter-spacing: 0.25px; white-space-collapse: preserve; background-color: rgb(255, 255, 255);&quot;&gt;InfluxDB记录资源实时状态&lt;/span&gt;&lt;/font&gt;&lt;/div&gt;" style="rounded=0;whiteSpace=wrap;html=1;align=center;" vertex="1" parent="1">
          <mxGeometry x="679" y="737" width="122" height="48" as="geometry" />
        </mxCell>
        <mxCell id="6N52XoH50DvQOM1Rtuur-37" style="edgeStyle=orthogonalEdgeStyle;rounded=0;orthogonalLoop=1;jettySize=auto;html=1;exitX=1;exitY=0.5;exitDx=0;exitDy=0;entryX=0;entryY=0.5;entryDx=0;entryDy=0;" edge="1" parent="1" source="6N52XoH50DvQOM1Rtuur-38" target="6N52XoH50DvQOM1Rtuur-36">
          <mxGeometry relative="1" as="geometry">
            <Array as="points">
              <mxPoint x="625" y="795" />
              <mxPoint x="657" y="795" />
              <mxPoint x="657" y="761" />
            </Array>
          </mxGeometry>
        </mxCell>
        <mxCell id="6N52XoH50DvQOM1Rtuur-38" value="&lt;div style=&quot;&quot;&gt;&lt;font face=&quot;-apple-system, blinkmacsystemfont, Helvetica Neue, helvetica, segoe ui, arial, roboto, PingFang SC, miui, Hiragino Sans GB, Microsoft Yahei, sans-serif&quot; color=&quot;#060607&quot;&gt;&lt;span style=&quot;font-size: 14px; letter-spacing: 0.25px; white-space-collapse: preserve; background-color: rgb(255, 255, 255);&quot;&gt;Kafka消息队列数据传输&lt;/span&gt;&lt;/font&gt;&lt;/div&gt;" style="rounded=0;whiteSpace=wrap;html=1;align=center;" vertex="1" parent="1">
          <mxGeometry x="515" y="768" width="110" height="50" as="geometry" />
        </mxCell>
        <mxCell id="6N52XoH50DvQOM1Rtuur-39" style="edgeStyle=orthogonalEdgeStyle;rounded=0;orthogonalLoop=1;jettySize=auto;html=1;exitX=0.5;exitY=1;exitDx=0;exitDy=0;" edge="1" parent="1" source="6N52XoH50DvQOM1Rtuur-36" target="6N52XoH50DvQOM1Rtuur-36">
          <mxGeometry relative="1" as="geometry" />
        </mxCell>
        <mxCell id="6N52XoH50DvQOM1Rtuur-40" value="" style="edgeStyle=orthogonalEdgeStyle;rounded=0;orthogonalLoop=1;jettySize=auto;html=1;exitX=1;exitY=0.5;exitDx=0;exitDy=0;entryX=0;entryY=0.5;entryDx=0;entryDy=0;" edge="1" parent="1" source="6N52XoH50DvQOM1Rtuur-19" target="6N52XoH50DvQOM1Rtuur-41">
          <mxGeometry relative="1" as="geometry">
            <mxPoint x="446" y="647" as="sourcePoint" />
            <mxPoint x="670" y="647" as="targetPoint" />
          </mxGeometry>
        </mxCell>
        <mxCell id="6N52XoH50DvQOM1Rtuur-41" value="&lt;div style=&quot;&quot;&gt;&lt;font face=&quot;-apple-system, blinkmacsystemfont, Helvetica Neue, helvetica, segoe ui, arial, roboto, PingFang SC, miui, Hiragino Sans GB, Microsoft Yahei, sans-serif&quot; color=&quot;#060607&quot;&gt;&lt;span style=&quot;font-size: 14px; letter-spacing: 0.25px; white-space-collapse: preserve; background-color: rgb(255, 255, 255);&quot;&gt;数据库存储结构设计&lt;/span&gt;&lt;/font&gt;&lt;/div&gt;" style="rounded=0;whiteSpace=wrap;html=1;align=center;" vertex="1" parent="1">
          <mxGeometry x="506" y="622" width="104" height="49" as="geometry" />
        </mxCell>
        <mxCell id="6N52XoH50DvQOM1Rtuur-42" style="edgeStyle=orthogonalEdgeStyle;rounded=0;orthogonalLoop=1;jettySize=auto;html=1;exitX=1;exitY=0.5;exitDx=0;exitDy=0;entryX=0;entryY=0.5;entryDx=0;entryDy=0;" edge="1" parent="1" source="6N52XoH50DvQOM1Rtuur-44" target="6N52XoH50DvQOM1Rtuur-19">
          <mxGeometry relative="1" as="geometry" />
        </mxCell>
        <mxCell id="6N52XoH50DvQOM1Rtuur-43" style="edgeStyle=orthogonalEdgeStyle;rounded=0;orthogonalLoop=1;jettySize=auto;html=1;exitX=1;exitY=0.5;exitDx=0;exitDy=0;" edge="1" parent="1" source="6N52XoH50DvQOM1Rtuur-44" target="6N52XoH50DvQOM1Rtuur-22">
          <mxGeometry relative="1" as="geometry" />
        </mxCell>
        <mxCell id="6N52XoH50DvQOM1Rtuur-44" value="" style="rounded=0;whiteSpace=wrap;html=1;" vertex="1" parent="1">
          <mxGeometry x="125" y="606" width="146" height="209" as="geometry" />
        </mxCell>
        <mxCell id="6N52XoH50DvQOM1Rtuur-45" style="edgeStyle=orthogonalEdgeStyle;rounded=0;orthogonalLoop=1;jettySize=auto;html=1;exitX=0.75;exitY=0;exitDx=0;exitDy=0;entryX=0.75;entryY=1;entryDx=0;entryDy=0;" edge="1" parent="1" source="6N52XoH50DvQOM1Rtuur-47" target="6N52XoH50DvQOM1Rtuur-51">
          <mxGeometry relative="1" as="geometry" />
        </mxCell>
        <mxCell id="6N52XoH50DvQOM1Rtuur-46" style="edgeStyle=orthogonalEdgeStyle;rounded=0;orthogonalLoop=1;jettySize=auto;html=1;exitX=0.25;exitY=1;exitDx=0;exitDy=0;entryX=0.25;entryY=0;entryDx=0;entryDy=0;" edge="1" parent="1" source="6N52XoH50DvQOM1Rtuur-47" target="6N52XoH50DvQOM1Rtuur-49">
          <mxGeometry relative="1" as="geometry" />
        </mxCell>
        <mxCell id="6N52XoH50DvQOM1Rtuur-47" value="&lt;div style=&quot;&quot;&gt;&lt;font face=&quot;-apple-system, blinkmacsystemfont, Helvetica Neue, helvetica, segoe ui, arial, roboto, PingFang SC, miui, Hiragino Sans GB, Microsoft Yahei, sans-serif&quot; color=&quot;#060607&quot;&gt;&lt;span style=&quot;font-size: 14px; letter-spacing: 0.25px; white-space-collapse: preserve; background-color: rgb(255, 255, 255);&quot;&gt;市级数据库&lt;/span&gt;&lt;/font&gt;&lt;/div&gt;" style="rounded=0;whiteSpace=wrap;html=1;align=center;" vertex="1" parent="1">
          <mxGeometry x="157" y="689" width="104" height="41" as="geometry" />
        </mxCell>
        <mxCell id="6N52XoH50DvQOM1Rtuur-48" style="edgeStyle=orthogonalEdgeStyle;rounded=0;orthogonalLoop=1;jettySize=auto;html=1;exitX=0.75;exitY=0;exitDx=0;exitDy=0;entryX=0.75;entryY=1;entryDx=0;entryDy=0;" edge="1" parent="1" source="6N52XoH50DvQOM1Rtuur-49" target="6N52XoH50DvQOM1Rtuur-47">
          <mxGeometry relative="1" as="geometry" />
        </mxCell>
        <mxCell id="6N52XoH50DvQOM1Rtuur-49" value="&lt;div style=&quot;&quot;&gt;&lt;font face=&quot;-apple-system, blinkmacsystemfont, Helvetica Neue, helvetica, segoe ui, arial, roboto, PingFang SC, miui, Hiragino Sans GB, Microsoft Yahei, sans-serif&quot; color=&quot;#060607&quot;&gt;&lt;span style=&quot;font-size: 14px; letter-spacing: 0.25px; white-space-collapse: preserve; background-color: rgb(255, 255, 255);&quot;&gt;区级数据库&lt;/span&gt;&lt;/font&gt;&lt;/div&gt;" style="rounded=0;whiteSpace=wrap;html=1;align=center;" vertex="1" parent="1">
          <mxGeometry x="155" y="761" width="104" height="41" as="geometry" />
        </mxCell>
        <mxCell id="6N52XoH50DvQOM1Rtuur-50" style="edgeStyle=orthogonalEdgeStyle;rounded=0;orthogonalLoop=1;jettySize=auto;html=1;exitX=0.25;exitY=1;exitDx=0;exitDy=0;entryX=0.25;entryY=0;entryDx=0;entryDy=0;" edge="1" parent="1" source="6N52XoH50DvQOM1Rtuur-51" target="6N52XoH50DvQOM1Rtuur-47">
          <mxGeometry relative="1" as="geometry" />
        </mxCell>
        <mxCell id="6N52XoH50DvQOM1Rtuur-51" value="&lt;div style=&quot;&quot;&gt;&lt;font face=&quot;-apple-system, blinkmacsystemfont, Helvetica Neue, helvetica, segoe ui, arial, roboto, PingFang SC, miui, Hiragino Sans GB, Microsoft Yahei, sans-serif&quot; color=&quot;#060607&quot;&gt;&lt;span style=&quot;font-size: 14px; letter-spacing: 0.25px; white-space-collapse: preserve; background-color: rgb(255, 255, 255);&quot;&gt;省级数据库&lt;/span&gt;&lt;/font&gt;&lt;/div&gt;" style="rounded=0;whiteSpace=wrap;html=1;align=center;" vertex="1" parent="1">
          <mxGeometry x="157" y="620" width="104" height="41" as="geometry" />
        </mxCell>
        <mxCell id="6N52XoH50DvQOM1Rtuur-52" value="&lt;span style=&quot;font-size: 18px;&quot;&gt;三层架构规划&lt;/span&gt;" style="text;html=1;align=center;verticalAlign=middle;whiteSpace=wrap;rounded=0;horizontal=0;rotation=90;" vertex="1" parent="1">
          <mxGeometry x="92" y="700" width="102" height="26" as="geometry" />
        </mxCell>
      </root>
    </mxGraphModel>
  </diagram>
</mxfile>
